<svg width="474" height="125" viewBox="0 0 474 125" fill="none" xmlns="http://www.w3.org/2000/svg">
<rect x="12.5" y="12.5" width="100" height="100" stroke="url(#paint0_linear_3_489)" stroke-width="25"/>
<g clip-path="url(#clip0_3_489)">
<rect x="12.5" y="12.5" width="100" height="100" stroke="url(#paint1_linear_3_489)" stroke-width="25"/>
</g>
<g clip-path="url(#clip1_3_489)">
<rect x="12.5" y="12.5" width="100" height="100" stroke="url(#paint2_linear_3_489)" stroke-width="25"/>
</g>
<path d="M169.067 2.70312V38.25H161.768V2.70312H169.067ZM180.005 2.70312V8.44043H151.001V2.70312H180.005ZM207.886 17.1807V22.8936H189.331V17.1807H207.886ZM191.504 2.70312V38.25H184.18V2.70312H191.504ZM213.11 2.70312V38.25H205.811V2.70312H213.11ZM227.271 2.70312V38.25H219.971V2.70312H227.271ZM252.637 28.9482C252.637 28.3135 252.539 27.7438 252.344 27.2393C252.165 26.7184 251.823 26.2464 251.318 25.8232C250.814 25.3838 250.106 24.9525 249.194 24.5293C248.283 24.1061 247.103 23.6667 245.654 23.2109C244.043 22.6901 242.513 22.1042 241.064 21.4531C239.632 20.8021 238.363 20.0452 237.256 19.1826C236.165 18.3037 235.303 17.2865 234.668 16.1309C234.049 14.9753 233.74 13.6325 233.74 12.1025C233.74 10.6214 234.066 9.27865 234.717 8.07422C235.368 6.85352 236.279 5.81185 237.451 4.94922C238.623 4.07031 240.007 3.39486 241.602 2.92285C243.213 2.45085 244.979 2.21484 246.899 2.21484C249.52 2.21484 251.807 2.68685 253.76 3.63086C255.713 4.57487 257.227 5.86882 258.301 7.5127C259.391 9.15658 259.937 11.0365 259.937 13.1523H252.661C252.661 12.1107 252.441 11.1992 252.002 10.418C251.579 9.62044 250.928 8.99382 250.049 8.53809C249.186 8.08236 248.096 7.85449 246.777 7.85449C245.508 7.85449 244.45 8.0498 243.604 8.44043C242.757 8.81478 242.122 9.32747 241.699 9.97852C241.276 10.6133 241.064 11.3294 241.064 12.127C241.064 12.7292 241.211 13.2744 241.504 13.7627C241.813 14.251 242.269 14.7067 242.871 15.1299C243.473 15.5531 244.214 15.9518 245.093 16.3262C245.972 16.7005 246.989 17.0667 248.145 17.4248C250.081 18.0107 251.782 18.6699 253.247 19.4023C254.728 20.1348 255.965 20.9567 256.958 21.8682C257.951 22.7796 258.7 23.8132 259.204 24.9688C259.709 26.1243 259.961 27.4346 259.961 28.8994C259.961 30.4456 259.66 31.8291 259.058 33.0498C258.455 34.2705 257.585 35.304 256.445 36.1504C255.306 36.9967 253.947 37.6396 252.368 38.0791C250.789 38.5186 249.023 38.7383 247.07 38.7383C245.312 38.7383 243.579 38.5104 241.87 38.0547C240.161 37.5827 238.607 36.8747 237.207 35.9307C235.824 34.9867 234.717 33.7822 233.887 32.3174C233.057 30.8525 232.642 29.1191 232.642 27.1172H239.99C239.99 28.224 240.161 29.1598 240.503 29.9248C240.845 30.6898 241.325 31.3083 241.943 31.7803C242.578 32.2523 243.327 32.5941 244.189 32.8057C245.068 33.0173 246.029 33.123 247.07 33.123C248.34 33.123 249.382 32.944 250.195 32.5859C251.025 32.2279 251.636 31.7314 252.026 31.0967C252.433 30.4619 252.637 29.7458 252.637 28.9482ZM285.181 2.70312V38.25H277.881V2.70312H285.181ZM310.547 28.9482C310.547 28.3135 310.449 27.7438 310.254 27.2393C310.075 26.7184 309.733 26.2464 309.229 25.8232C308.724 25.3838 308.016 24.9525 307.104 24.5293C306.193 24.1061 305.013 23.6667 303.564 23.2109C301.953 22.6901 300.423 22.1042 298.975 21.4531C297.542 20.8021 296.273 20.0452 295.166 19.1826C294.076 18.3037 293.213 17.2865 292.578 16.1309C291.96 14.9753 291.65 13.6325 291.65 12.1025C291.65 10.6214 291.976 9.27865 292.627 8.07422C293.278 6.85352 294.189 5.81185 295.361 4.94922C296.533 4.07031 297.917 3.39486 299.512 2.92285C301.123 2.45085 302.889 2.21484 304.81 2.21484C307.43 2.21484 309.717 2.68685 311.67 3.63086C313.623 4.57487 315.137 5.86882 316.211 7.5127C317.301 9.15658 317.847 11.0365 317.847 13.1523H310.571C310.571 12.1107 310.352 11.1992 309.912 10.418C309.489 9.62044 308.838 8.99382 307.959 8.53809C307.096 8.08236 306.006 7.85449 304.688 7.85449C303.418 7.85449 302.36 8.0498 301.514 8.44043C300.667 8.81478 300.033 9.32747 299.609 9.97852C299.186 10.6133 298.975 11.3294 298.975 12.127C298.975 12.7292 299.121 13.2744 299.414 13.7627C299.723 14.251 300.179 14.7067 300.781 15.1299C301.383 15.5531 302.124 15.9518 303.003 16.3262C303.882 16.7005 304.899 17.0667 306.055 17.4248C307.992 18.0107 309.692 18.6699 311.157 19.4023C312.638 20.1348 313.875 20.9567 314.868 21.8682C315.861 22.7796 316.61 23.8132 317.114 24.9688C317.619 26.1243 317.871 27.4346 317.871 28.8994C317.871 30.4456 317.57 31.8291 316.968 33.0498C316.366 34.2705 315.495 35.304 314.355 36.1504C313.216 36.9967 311.857 37.6396 310.278 38.0791C308.7 38.5186 306.934 38.7383 304.98 38.7383C303.223 38.7383 301.489 38.5104 299.78 38.0547C298.071 37.5827 296.517 36.8747 295.117 35.9307C293.734 34.9867 292.627 33.7822 291.797 32.3174C290.967 30.8525 290.552 29.1191 290.552 27.1172H297.9C297.9 28.224 298.071 29.1598 298.413 29.9248C298.755 30.6898 299.235 31.3083 299.854 31.7803C300.488 32.2523 301.237 32.5941 302.1 32.8057C302.979 33.0173 303.939 33.123 304.98 33.123C306.25 33.123 307.292 32.944 308.105 32.5859C308.936 32.2279 309.546 31.7314 309.937 31.0967C310.343 30.4619 310.547 29.7458 310.547 28.9482Z" fill="black"/>
<path d="M160.437 69.6797H170.911L182.812 106.777L194.714 69.6797H205.188L187.061 123H178.564L160.437 69.6797ZM154.065 69.6797H164.905L166.919 110.549V123H154.065V69.6797ZM200.72 69.6797H211.597V123H198.706V110.549L200.72 69.6797ZM228.479 69.6797L238.293 92.8242L248.145 69.6797H261.987L244.849 103.847V123H231.775V103.847L214.6 69.6797H228.479ZM319.812 113.112V123H292.859V113.112H319.812ZM297.437 69.6797V123H284.583V69.6797H297.437ZM368.005 95.2778V97.4385C368.005 101.516 367.432 105.178 366.284 108.425C365.161 111.647 363.562 114.406 361.487 116.701C359.412 118.972 356.958 120.717 354.126 121.938C351.294 123.134 348.169 123.732 344.751 123.732C341.309 123.732 338.159 123.134 335.303 121.938C332.471 120.717 330.005 118.972 327.905 116.701C325.83 114.406 324.219 111.647 323.071 108.425C321.948 105.178 321.387 101.516 321.387 97.4385V95.2778C321.387 91.2007 321.948 87.5386 323.071 84.2915C324.219 81.0444 325.818 78.2856 327.869 76.0151C329.944 73.7202 332.397 71.9746 335.229 70.7783C338.086 69.5576 341.235 68.9473 344.678 68.9473C348.096 68.9473 351.221 69.5576 354.053 70.7783C356.909 71.9746 359.375 73.7202 361.45 76.0151C363.525 78.2856 365.137 81.0444 366.284 84.2915C367.432 87.5386 368.005 91.2007 368.005 95.2778ZM354.968 97.4385V95.2046C354.968 92.5679 354.736 90.2485 354.272 88.2466C353.833 86.2202 353.174 84.5234 352.295 83.1562C351.416 81.7891 350.33 80.7637 349.036 80.0801C347.766 79.3721 346.313 79.0181 344.678 79.0181C342.969 79.0181 341.479 79.3721 340.21 80.0801C338.94 80.7637 337.878 81.7891 337.024 83.1562C336.169 84.5234 335.522 86.2202 335.083 88.2466C334.668 90.2485 334.46 92.5679 334.46 95.2046V97.4385C334.46 100.051 334.668 102.37 335.083 104.396C335.522 106.398 336.169 108.095 337.024 109.487C337.903 110.878 338.977 111.928 340.247 112.636C341.541 113.344 343.042 113.698 344.751 113.698C346.387 113.698 347.839 113.344 349.109 112.636C350.378 111.928 351.44 110.878 352.295 109.487C353.174 108.095 353.833 106.398 354.272 104.396C354.736 102.37 354.968 100.051 354.968 97.4385ZM418.286 94.5088V116.408C417.383 117.409 415.991 118.483 414.111 119.631C412.256 120.754 409.912 121.718 407.08 122.524C404.248 123.33 400.916 123.732 397.083 123.732C393.542 123.732 390.332 123.171 387.451 122.048C384.57 120.9 382.092 119.228 380.017 117.031C377.966 114.809 376.379 112.099 375.256 108.901C374.158 105.678 373.608 101.992 373.608 97.8413V94.875C373.608 90.7246 374.17 87.0381 375.293 83.8154C376.416 80.5928 377.991 77.8828 380.017 75.6855C382.068 73.4639 384.473 71.7793 387.231 70.6318C390.015 69.4844 393.066 68.9106 396.387 68.9106C401.294 68.9106 405.286 69.6919 408.362 71.2544C411.438 72.7925 413.77 74.9287 415.356 77.6631C416.943 80.373 417.908 83.5103 418.25 87.0747H405.908C405.664 85.3169 405.2 83.8276 404.517 82.6069C403.857 81.3618 402.905 80.4219 401.66 79.7871C400.415 79.1279 398.804 78.7983 396.826 78.7983C395.288 78.7983 393.884 79.1279 392.615 79.7871C391.37 80.4463 390.308 81.4473 389.429 82.79C388.55 84.1084 387.866 85.7686 387.378 87.7705C386.914 89.7725 386.682 92.1162 386.682 94.8018V97.8413C386.682 100.502 386.902 102.834 387.341 104.836C387.805 106.838 388.489 108.51 389.392 109.853C390.32 111.171 391.492 112.172 392.908 112.856C394.348 113.515 396.045 113.845 397.998 113.845C399.365 113.845 400.537 113.735 401.514 113.515C402.49 113.271 403.296 112.978 403.931 112.636C404.59 112.27 405.09 111.928 405.432 111.611V103.334H396.497V94.5088H418.286ZM470.911 95.2778V97.4385C470.911 101.516 470.337 105.178 469.189 108.425C468.066 111.647 466.467 114.406 464.392 116.701C462.317 118.972 459.863 120.717 457.031 121.938C454.199 123.134 451.074 123.732 447.656 123.732C444.214 123.732 441.064 123.134 438.208 121.938C435.376 120.717 432.91 118.972 430.811 116.701C428.735 114.406 427.124 111.647 425.977 108.425C424.854 105.178 424.292 101.516 424.292 97.4385V95.2778C424.292 91.2007 424.854 87.5386 425.977 84.2915C427.124 81.0444 428.723 78.2856 430.774 76.0151C432.849 73.7202 435.303 71.9746 438.135 70.7783C440.991 69.5576 444.141 68.9473 447.583 68.9473C451.001 68.9473 454.126 69.5576 456.958 70.7783C459.814 71.9746 462.28 73.7202 464.355 76.0151C466.431 78.2856 468.042 81.0444 469.189 84.2915C470.337 87.5386 470.911 91.2007 470.911 95.2778ZM457.874 97.4385V95.2046C457.874 92.5679 457.642 90.2485 457.178 88.2466C456.738 86.2202 456.079 84.5234 455.2 83.1562C454.321 81.7891 453.235 80.7637 451.941 80.0801C450.671 79.3721 449.219 79.0181 447.583 79.0181C445.874 79.0181 444.385 79.3721 443.115 80.0801C441.846 80.7637 440.784 81.7891 439.929 83.1562C439.075 84.5234 438.428 86.2202 437.988 88.2466C437.573 90.2485 437.366 92.5679 437.366 95.2046V97.4385C437.366 100.051 437.573 102.37 437.988 104.396C438.428 106.398 439.075 108.095 439.929 109.487C440.808 110.878 441.882 111.928 443.152 112.636C444.446 113.344 445.947 113.698 447.656 113.698C449.292 113.698 450.745 113.344 452.014 112.636C453.284 111.928 454.346 110.878 455.2 109.487C456.079 108.095 456.738 106.398 457.178 104.396C457.642 102.37 457.874 100.051 457.874 97.4385Z" fill="black"/>
<defs>
<linearGradient id="paint0_linear_3_489" x1="0" y1="62.5" x2="125" y2="62.5" gradientUnits="userSpaceOnUse">
<stop stop-color="#F12711"/>
<stop offset="1" stop-color="#F5AF19"/>
</linearGradient>
<linearGradient id="paint1_linear_3_489" x1="0" y1="62.5" x2="125" y2="62.5" gradientUnits="userSpaceOnUse">
<stop stop-color="#40E0D0"/>
<stop offset="0.5" stop-color="#FF8C00"/>
<stop offset="1" stop-color="#FF0080"/>
</linearGradient>
<linearGradient id="paint2_linear_3_489" x1="0" y1="62.5" x2="125" y2="62.5" gradientUnits="userSpaceOnUse">
<stop stop-color="#12C2E9"/>
<stop offset="0.5" stop-color="#C471ED"/>
<stop offset="1" stop-color="#F64F59"/>
</linearGradient>
<clipPath id="clip0_3_489">
<rect width="62.5" height="62.5" fill="white"/>
</clipPath>
<clipPath id="clip1_3_489">
<rect width="62.5" height="62.5" fill="white" transform="translate(62.5 62.5)"/>
</clipPath>
</defs>
</svg>
